<svg width="280" height="140" viewBox="0 0 280 140" fill="none" xmlns="http://www.w3.org/2000/svg">
<rect width="280" height="140" fill="white"/>
<rect width="280" height="140" fill="#F4F5F7"/>
<g filter="url(#filter0_dd)">
<rect x="30" y="31" width="220" height="78" rx="4" fill="white"/>
<rect x="29.5" y="30.5" width="221" height="79" rx="4.5" stroke="black" stroke-opacity="0.04"/>
</g>
<rect x="94" y="61" width="92" height="3" rx="1.5" fill="#6B7280"/>
<rect x="93" y="68" width="94" height="2" rx="1" fill="#D2D6DC"/>
<rect x="98" y="73" width="84" height="2" rx="1" fill="#D2D6DC"/>
<g filter="url(#filter1_dd)">
<rect x="160" y="83" width="30" height="12" rx="3" fill="#4B5563"/>
</g>
<rect x="168" y="88" width="14" height="2" rx="1" fill="#9FA6B2"/>
<g filter="url(#filter2_d)">
<rect x="90" y="83" width="66" height="12" rx="3" fill="white"/>
<rect x="89.5" y="82.5" width="67" height="13" rx="3.5" stroke="black" stroke-opacity="0.1"/>
</g>
<path fill-rule="evenodd" clip-rule="evenodd" d="M133.084 44.424L140 47.8819L146.916 44.4239C146.668 43.6002 145.904 43 145 43H135C134.096 43 133.332 43.6002 133.084 44.424ZM147 46.6179L140 50.1179L133 46.618V51C133 52.1046 133.895 53 135 53H145C146.105 53 147 52.1046 147 51V46.6179Z" fill="#D2D6DC"/>
<defs>
<filter id="filter0_dd" x="24" y="28" width="232" height="90" filterUnits="userSpaceOnUse" color-interpolation-filters="sRGB">
<feFlood flood-opacity="0" result="BackgroundImageFix"/>
<feColorMatrix in="SourceAlpha" type="matrix" values="0 0 0 0 0 0 0 0 0 0 0 0 0 0 0 0 0 0 127 0"/>
<feOffset dy="3"/>
<feGaussianBlur stdDeviation="2.5"/>
<feColorMatrix type="matrix" values="0 0 0 0 0 0 0 0 0 0 0 0 0 0 0 0 0 0 0.04 0"/>
<feBlend mode="normal" in2="BackgroundImageFix" result="effect1_dropShadow"/>
<feColorMatrix in="SourceAlpha" type="matrix" values="0 0 0 0 0 0 0 0 0 0 0 0 0 0 0 0 0 0 127 0"/>
<feOffset dy="1"/>
<feGaussianBlur stdDeviation="1"/>
<feColorMatrix type="matrix" values="0 0 0 0 0 0 0 0 0 0 0 0 0 0 0 0 0 0 0.03 0"/>
<feBlend mode="normal" in2="effect1_dropShadow" result="effect2_dropShadow"/>
<feBlend mode="normal" in="SourceGraphic" in2="effect2_dropShadow" result="shape"/>
</filter>
<filter id="filter1_dd" x="157" y="81" width="36" height="18" filterUnits="userSpaceOnUse" color-interpolation-filters="sRGB">
<feFlood flood-opacity="0" result="BackgroundImageFix"/>
<feColorMatrix in="SourceAlpha" type="matrix" values="0 0 0 0 0 0 0 0 0 0 0 0 0 0 0 0 0 0 127 0"/>
<feOffset dy="1"/>
<feGaussianBlur stdDeviation="1"/>
<feColorMatrix type="matrix" values="0 0 0 0 0 0 0 0 0 0 0 0 0 0 0 0 0 0 0.06 0"/>
<feBlend mode="normal" in2="BackgroundImageFix" result="effect1_dropShadow"/>
<feColorMatrix in="SourceAlpha" type="matrix" values="0 0 0 0 0 0 0 0 0 0 0 0 0 0 0 0 0 0 127 0"/>
<feOffset dy="1"/>
<feGaussianBlur stdDeviation="1.5"/>
<feColorMatrix type="matrix" values="0 0 0 0 0 0 0 0 0 0 0 0 0 0 0 0 0 0 0.1 0"/>
<feBlend mode="normal" in2="effect1_dropShadow" result="effect2_dropShadow"/>
<feBlend mode="normal" in="SourceGraphic" in2="effect2_dropShadow" result="shape"/>
</filter>
<filter id="filter2_d" x="87" y="81" width="72" height="18" filterUnits="userSpaceOnUse" color-interpolation-filters="sRGB">
<feFlood flood-opacity="0" result="BackgroundImageFix"/>
<feColorMatrix in="SourceAlpha" type="matrix" values="0 0 0 0 0 0 0 0 0 0 0 0 0 0 0 0 0 0 127 0"/>
<feOffset dy="1"/>
<feGaussianBlur stdDeviation="1"/>
<feColorMatrix type="matrix" values="0 0 0 0 0 0 0 0 0 0 0 0 0 0 0 0 0 0 0.04 0"/>
<feBlend mode="normal" in2="BackgroundImageFix" result="effect1_dropShadow"/>
<feBlend mode="normal" in="SourceGraphic" in2="effect1_dropShadow" result="shape"/>
</filter>
</defs>
</svg>
