<svg width="40" height="24" viewBox="0 0 40 24" fill="none" xmlns="http://www.w3.org/2000/svg">
<path d="M20 0C14.667 0 11.333 2.667 10 8C12 5.333 14.333 4.333 17 5C18.522 5.38 19.609 6.484 20.813 7.706C22.773 9.696 25.043 12 30 12C35.333 12 38.667 9.333 40 4C38 6.667 35.667 7.667 33 7C31.479 6.62 30.391 5.516 29.187 4.294C27.227 2.304 24.957 0 20 0ZM10 12C4.667 12 1.333 14.667 0 20C2 17.333 4.333 16.333 7 17C8.521 17.38 9.609 18.484 10.813 19.706C12.773 21.696 15.043 24 20 24C25.333 24 28.667 21.333 30 16C28 18.667 25.667 19.667 23 19C21.479 18.62 20.391 17.516 19.187 16.294C17.227 14.304 14.957 12 10 12Z" fill="#16BDCA"/>
</svg>
